%TF.GenerationSoftware,KiCad,Pcbnew,7.0.2*%
%TF.CreationDate,2023-10-29T21:13:40-05:00*%
%TF.ProjectId,data_port_breakout,64617461-5f70-46f7-9274-5f627265616b,rev?*%
%TF.SameCoordinates,Original*%
%TF.FileFunction,Copper,L2,Bot*%
%TF.FilePolarity,Positive*%
%FSLAX46Y46*%
G04 Gerber Fmt 4.6, Leading zero omitted, Abs format (unit mm)*
G04 Created by KiCad (PCBNEW 7.0.2) date 2023-10-29 21:13:40*
%MOMM*%
%LPD*%
G01*
G04 APERTURE LIST*
%TA.AperFunction,ComponentPad*%
%ADD10R,1.700000X1.700000*%
%TD*%
%TA.AperFunction,ComponentPad*%
%ADD11O,1.700000X1.700000*%
%TD*%
%TA.AperFunction,SMDPad,CuDef*%
%ADD12R,2.100000X0.750000*%
%TD*%
%TA.AperFunction,Conductor*%
%ADD13C,0.300000*%
%TD*%
%TA.AperFunction,Conductor*%
%ADD14C,0.500000*%
%TD*%
G04 APERTURE END LIST*
D10*
%TO.P,J2,1,Pin_1*%
%TO.N,/S*%
X80715000Y-88564955D03*
D11*
%TO.P,J2,2,Pin_2*%
%TO.N,+5V*%
X80715000Y-91104955D03*
%TO.P,J2,3,Pin_3*%
%TO.N,GND*%
X80715000Y-93644955D03*
%TD*%
D12*
%TO.P,J3,1,Pin_1*%
%TO.N,unconnected-(J3-Pin_1-Pad1)*%
X100162173Y-87294955D03*
%TO.P,J3,2,Pin_2*%
%TO.N,unconnected-(J3-Pin_2-Pad2)*%
X103762173Y-87294955D03*
%TO.P,J3,3,Pin_3*%
%TO.N,unconnected-(J3-Pin_3-Pad3)*%
X100162173Y-88564955D03*
%TO.P,J3,4,Pin_4*%
%TO.N,+5V*%
X103762173Y-88564955D03*
%TO.P,J3,5,Pin_5*%
%TO.N,unconnected-(J3-Pin_5-Pad5)*%
X100162173Y-89834955D03*
%TO.P,J3,6,Pin_6*%
%TO.N,unconnected-(J3-Pin_6-Pad6)*%
X103762173Y-89834955D03*
%TO.P,J3,7,Pin_7*%
%TO.N,unconnected-(J3-Pin_7-Pad7)*%
X100162173Y-91104955D03*
%TO.P,J3,8,Pin_8*%
%TO.N,/S*%
X103762173Y-91104955D03*
%TO.P,J3,9,Pin_9*%
%TO.N,unconnected-(J3-Pin_9-Pad9)*%
X100162173Y-92374955D03*
%TO.P,J3,10,Pin_10*%
%TO.N,unconnected-(J3-Pin_10-Pad10)*%
X103762173Y-92374955D03*
%TO.P,J3,11,Pin_11*%
%TO.N,unconnected-(J3-Pin_11-Pad11)*%
X100162173Y-93644955D03*
%TO.P,J3,12,Pin_12*%
%TO.N,GND*%
X103762173Y-93644955D03*
%TO.P,J3,13,Pin_13*%
%TO.N,unconnected-(J3-Pin_13-Pad13)*%
X100162173Y-94914955D03*
%TO.P,J3,14,Pin_14*%
%TO.N,unconnected-(J3-Pin_14-Pad14)*%
X103762173Y-94914955D03*
%TD*%
D13*
%TO.N,/S*%
X93299045Y-88564955D02*
X80715000Y-88564955D01*
X109474000Y-88900000D02*
X109474000Y-85852000D01*
X107269045Y-91104955D02*
X109474000Y-88900000D01*
X107188000Y-83566000D02*
X98298000Y-83566000D01*
X109474000Y-85852000D02*
X107188000Y-83566000D01*
X98298000Y-83566000D02*
X93299045Y-88564955D01*
X103762173Y-91104955D02*
X107269045Y-91104955D01*
D14*
%TO.N,+5V*%
X107188000Y-87884000D02*
X107188000Y-85852000D01*
X107188000Y-85852000D02*
X106426000Y-85090000D01*
X92791045Y-91104955D02*
X80715000Y-91104955D01*
X106507045Y-88564955D02*
X107188000Y-87884000D01*
X103762173Y-88564955D02*
X106507045Y-88564955D01*
X98806000Y-85090000D02*
X92791045Y-91104955D01*
X106426000Y-85090000D02*
X98806000Y-85090000D01*
%TO.N,GND*%
X106680000Y-97790000D02*
X98298000Y-97790000D01*
X94152955Y-93644955D02*
X80715000Y-93644955D01*
X103762173Y-93644955D02*
X106598955Y-93644955D01*
X107442000Y-94488000D02*
X107442000Y-97028000D01*
X98298000Y-97790000D02*
X94152955Y-93644955D01*
X106598955Y-93644955D02*
X107442000Y-94488000D01*
X107442000Y-97028000D02*
X106680000Y-97790000D01*
%TD*%
M02*
