%TF.GenerationSoftware,KiCad,Pcbnew,7.0.2*%
%TF.CreationDate,2023-10-29T21:13:40-05:00*%
%TF.ProjectId,data_port_breakout,64617461-5f70-46f7-9274-5f627265616b,rev?*%
%TF.SameCoordinates,Original*%
%TF.FileFunction,Legend,Top*%
%TF.FilePolarity,Positive*%
%FSLAX46Y46*%
G04 Gerber Fmt 4.6, Leading zero omitted, Abs format (unit mm)*
G04 Created by KiCad (PCBNEW 7.0.2) date 2023-10-29 21:13:40*
%MOMM*%
%LPD*%
G01*
G04 APERTURE LIST*
%ADD10C,0.100000*%
%ADD11C,0.150000*%
%ADD12C,0.300000*%
%ADD13C,0.120000*%
%ADD14R,1.700000X1.700000*%
%ADD15O,1.700000X1.700000*%
G04 APERTURE END LIST*
D10*
X103812173Y-96729955D02*
X103812173Y-85479955D01*
X99412173Y-89929955D02*
X99412173Y-92279955D01*
X100112173Y-89929955D02*
X99762173Y-89929955D01*
X100112173Y-92279955D02*
X100112173Y-96729955D01*
X103812173Y-85479955D02*
X100112173Y-85479955D01*
X100112173Y-85479955D02*
X100112173Y-89929955D01*
X99762173Y-92279955D02*
X100112173Y-92279955D01*
X100112173Y-96729955D02*
X103812173Y-96729955D01*
X100112173Y-92279955D02*
X100112173Y-89929955D01*
X99762173Y-89929955D02*
X99412173Y-89929955D01*
X99412173Y-92279955D02*
X99762173Y-92279955D01*
D11*
X77919238Y-94742095D02*
X77871619Y-94837333D01*
X77871619Y-94837333D02*
X77871619Y-94980190D01*
X77871619Y-94980190D02*
X77919238Y-95123047D01*
X77919238Y-95123047D02*
X78014476Y-95218285D01*
X78014476Y-95218285D02*
X78109714Y-95265904D01*
X78109714Y-95265904D02*
X78300190Y-95313523D01*
X78300190Y-95313523D02*
X78443047Y-95313523D01*
X78443047Y-95313523D02*
X78633523Y-95265904D01*
X78633523Y-95265904D02*
X78728761Y-95218285D01*
X78728761Y-95218285D02*
X78824000Y-95123047D01*
X78824000Y-95123047D02*
X78871619Y-94980190D01*
X78871619Y-94980190D02*
X78871619Y-94884952D01*
X78871619Y-94884952D02*
X78824000Y-94742095D01*
X78824000Y-94742095D02*
X78776380Y-94694476D01*
X78776380Y-94694476D02*
X78443047Y-94694476D01*
X78443047Y-94694476D02*
X78443047Y-94884952D01*
X78871619Y-94265904D02*
X77871619Y-94265904D01*
X77871619Y-94265904D02*
X78871619Y-93694476D01*
X78871619Y-93694476D02*
X77871619Y-93694476D01*
X78871619Y-93218285D02*
X77871619Y-93218285D01*
X77871619Y-93218285D02*
X77871619Y-92980190D01*
X77871619Y-92980190D02*
X77919238Y-92837333D01*
X77919238Y-92837333D02*
X78014476Y-92742095D01*
X78014476Y-92742095D02*
X78109714Y-92694476D01*
X78109714Y-92694476D02*
X78300190Y-92646857D01*
X78300190Y-92646857D02*
X78443047Y-92646857D01*
X78443047Y-92646857D02*
X78633523Y-92694476D01*
X78633523Y-92694476D02*
X78728761Y-92742095D01*
X78728761Y-92742095D02*
X78824000Y-92837333D01*
X78824000Y-92837333D02*
X78871619Y-92980190D01*
X78871619Y-92980190D02*
X78871619Y-93218285D01*
X78824000Y-88709523D02*
X78871619Y-88566666D01*
X78871619Y-88566666D02*
X78871619Y-88328571D01*
X78871619Y-88328571D02*
X78824000Y-88233333D01*
X78824000Y-88233333D02*
X78776380Y-88185714D01*
X78776380Y-88185714D02*
X78681142Y-88138095D01*
X78681142Y-88138095D02*
X78585904Y-88138095D01*
X78585904Y-88138095D02*
X78490666Y-88185714D01*
X78490666Y-88185714D02*
X78443047Y-88233333D01*
X78443047Y-88233333D02*
X78395428Y-88328571D01*
X78395428Y-88328571D02*
X78347809Y-88519047D01*
X78347809Y-88519047D02*
X78300190Y-88614285D01*
X78300190Y-88614285D02*
X78252571Y-88661904D01*
X78252571Y-88661904D02*
X78157333Y-88709523D01*
X78157333Y-88709523D02*
X78062095Y-88709523D01*
X78062095Y-88709523D02*
X77966857Y-88661904D01*
X77966857Y-88661904D02*
X77919238Y-88614285D01*
X77919238Y-88614285D02*
X77871619Y-88519047D01*
X77871619Y-88519047D02*
X77871619Y-88280952D01*
X77871619Y-88280952D02*
X77919238Y-88138095D01*
D10*
X92648380Y-83273904D02*
X92648380Y-83121523D01*
X92515047Y-83216761D02*
X92857904Y-83216761D01*
X92857904Y-83216761D02*
X92896000Y-83197714D01*
X92896000Y-83197714D02*
X92915047Y-83159619D01*
X92915047Y-83159619D02*
X92915047Y-83121523D01*
X92915047Y-82988190D02*
X92648380Y-82988190D01*
X92686476Y-82988190D02*
X92667428Y-82969143D01*
X92667428Y-82969143D02*
X92648380Y-82931048D01*
X92648380Y-82931048D02*
X92648380Y-82873905D01*
X92648380Y-82873905D02*
X92667428Y-82835809D01*
X92667428Y-82835809D02*
X92705523Y-82816762D01*
X92705523Y-82816762D02*
X92915047Y-82816762D01*
X92705523Y-82816762D02*
X92667428Y-82797714D01*
X92667428Y-82797714D02*
X92648380Y-82759619D01*
X92648380Y-82759619D02*
X92648380Y-82702476D01*
X92648380Y-82702476D02*
X92667428Y-82664381D01*
X92667428Y-82664381D02*
X92705523Y-82645333D01*
X92705523Y-82645333D02*
X92915047Y-82645333D01*
D12*
X93985857Y-98364570D02*
X93985857Y-97650285D01*
X94414428Y-98507427D02*
X92914428Y-98007427D01*
X92914428Y-98007427D02*
X94414428Y-97507427D01*
X94414428Y-95864571D02*
X92914428Y-95864571D01*
X94414428Y-95007428D02*
X93557285Y-95650285D01*
X92914428Y-95007428D02*
X93771571Y-95864571D01*
X93628714Y-94364571D02*
X93628714Y-93864571D01*
X94414428Y-93650285D02*
X94414428Y-94364571D01*
X94414428Y-94364571D02*
X92914428Y-94364571D01*
X92914428Y-94364571D02*
X92914428Y-93650285D01*
X94414428Y-93007428D02*
X92914428Y-93007428D01*
X92914428Y-93007428D02*
X94414428Y-92150285D01*
X94414428Y-92150285D02*
X92914428Y-92150285D01*
X92914428Y-89864570D02*
X93985857Y-89864570D01*
X93985857Y-89864570D02*
X94200142Y-89935999D01*
X94200142Y-89935999D02*
X94343000Y-90078856D01*
X94343000Y-90078856D02*
X94414428Y-90293142D01*
X94414428Y-90293142D02*
X94414428Y-90435999D01*
X93985857Y-89221713D02*
X93985857Y-88507428D01*
X94414428Y-89364570D02*
X92914428Y-88864570D01*
X92914428Y-88864570D02*
X94414428Y-88364570D01*
X94414428Y-87864571D02*
X92914428Y-87864571D01*
X92914428Y-87864571D02*
X93985857Y-87364571D01*
X93985857Y-87364571D02*
X92914428Y-86864571D01*
X92914428Y-86864571D02*
X94414428Y-86864571D01*
X93628714Y-86150285D02*
X93628714Y-85650285D01*
X94414428Y-85435999D02*
X94414428Y-86150285D01*
X94414428Y-86150285D02*
X92914428Y-86150285D01*
X92914428Y-86150285D02*
X92914428Y-85435999D01*
X94343000Y-84864570D02*
X94414428Y-84650285D01*
X94414428Y-84650285D02*
X94414428Y-84293142D01*
X94414428Y-84293142D02*
X94343000Y-84150285D01*
X94343000Y-84150285D02*
X94271571Y-84078856D01*
X94271571Y-84078856D02*
X94128714Y-84007427D01*
X94128714Y-84007427D02*
X93985857Y-84007427D01*
X93985857Y-84007427D02*
X93843000Y-84078856D01*
X93843000Y-84078856D02*
X93771571Y-84150285D01*
X93771571Y-84150285D02*
X93700142Y-84293142D01*
X93700142Y-84293142D02*
X93628714Y-84578856D01*
X93628714Y-84578856D02*
X93557285Y-84721713D01*
X93557285Y-84721713D02*
X93485857Y-84793142D01*
X93485857Y-84793142D02*
X93343000Y-84864570D01*
X93343000Y-84864570D02*
X93200142Y-84864570D01*
X93200142Y-84864570D02*
X93057285Y-84793142D01*
X93057285Y-84793142D02*
X92985857Y-84721713D01*
X92985857Y-84721713D02*
X92914428Y-84578856D01*
X92914428Y-84578856D02*
X92914428Y-84221713D01*
X92914428Y-84221713D02*
X92985857Y-84007427D01*
X96844428Y-95150285D02*
X95344428Y-95150285D01*
X95344428Y-95150285D02*
X95344428Y-94578856D01*
X95344428Y-94578856D02*
X95415857Y-94435999D01*
X95415857Y-94435999D02*
X95487285Y-94364570D01*
X95487285Y-94364570D02*
X95630142Y-94293142D01*
X95630142Y-94293142D02*
X95844428Y-94293142D01*
X95844428Y-94293142D02*
X95987285Y-94364570D01*
X95987285Y-94364570D02*
X96058714Y-94435999D01*
X96058714Y-94435999D02*
X96130142Y-94578856D01*
X96130142Y-94578856D02*
X96130142Y-95150285D01*
X96844428Y-93650285D02*
X95844428Y-93650285D01*
X96130142Y-93650285D02*
X95987285Y-93578856D01*
X95987285Y-93578856D02*
X95915857Y-93507428D01*
X95915857Y-93507428D02*
X95844428Y-93364570D01*
X95844428Y-93364570D02*
X95844428Y-93221713D01*
X96844428Y-92507428D02*
X96773000Y-92650285D01*
X96773000Y-92650285D02*
X96701571Y-92721714D01*
X96701571Y-92721714D02*
X96558714Y-92793142D01*
X96558714Y-92793142D02*
X96130142Y-92793142D01*
X96130142Y-92793142D02*
X95987285Y-92721714D01*
X95987285Y-92721714D02*
X95915857Y-92650285D01*
X95915857Y-92650285D02*
X95844428Y-92507428D01*
X95844428Y-92507428D02*
X95844428Y-92293142D01*
X95844428Y-92293142D02*
X95915857Y-92150285D01*
X95915857Y-92150285D02*
X95987285Y-92078857D01*
X95987285Y-92078857D02*
X96130142Y-92007428D01*
X96130142Y-92007428D02*
X96558714Y-92007428D01*
X96558714Y-92007428D02*
X96701571Y-92078857D01*
X96701571Y-92078857D02*
X96773000Y-92150285D01*
X96773000Y-92150285D02*
X96844428Y-92293142D01*
X96844428Y-92293142D02*
X96844428Y-92507428D01*
X96844428Y-90721714D02*
X95344428Y-90721714D01*
X96773000Y-90721714D02*
X96844428Y-90864571D01*
X96844428Y-90864571D02*
X96844428Y-91150285D01*
X96844428Y-91150285D02*
X96773000Y-91293142D01*
X96773000Y-91293142D02*
X96701571Y-91364571D01*
X96701571Y-91364571D02*
X96558714Y-91435999D01*
X96558714Y-91435999D02*
X96130142Y-91435999D01*
X96130142Y-91435999D02*
X95987285Y-91364571D01*
X95987285Y-91364571D02*
X95915857Y-91293142D01*
X95915857Y-91293142D02*
X95844428Y-91150285D01*
X95844428Y-91150285D02*
X95844428Y-90864571D01*
X95844428Y-90864571D02*
X95915857Y-90721714D01*
X95844428Y-89364571D02*
X96844428Y-89364571D01*
X95844428Y-90007428D02*
X96630142Y-90007428D01*
X96630142Y-90007428D02*
X96773000Y-89935999D01*
X96773000Y-89935999D02*
X96844428Y-89793142D01*
X96844428Y-89793142D02*
X96844428Y-89578856D01*
X96844428Y-89578856D02*
X96773000Y-89435999D01*
X96773000Y-89435999D02*
X96701571Y-89364571D01*
X96773000Y-88007428D02*
X96844428Y-88150285D01*
X96844428Y-88150285D02*
X96844428Y-88435999D01*
X96844428Y-88435999D02*
X96773000Y-88578856D01*
X96773000Y-88578856D02*
X96701571Y-88650285D01*
X96701571Y-88650285D02*
X96558714Y-88721713D01*
X96558714Y-88721713D02*
X96130142Y-88721713D01*
X96130142Y-88721713D02*
X95987285Y-88650285D01*
X95987285Y-88650285D02*
X95915857Y-88578856D01*
X95915857Y-88578856D02*
X95844428Y-88435999D01*
X95844428Y-88435999D02*
X95844428Y-88150285D01*
X95844428Y-88150285D02*
X95915857Y-88007428D01*
X95844428Y-87578856D02*
X95844428Y-87007428D01*
X95344428Y-87364571D02*
X96630142Y-87364571D01*
X96630142Y-87364571D02*
X96773000Y-87293142D01*
X96773000Y-87293142D02*
X96844428Y-87150285D01*
X96844428Y-87150285D02*
X96844428Y-87007428D01*
D11*
X78490666Y-91709904D02*
X78490666Y-90948000D01*
X78871619Y-91328952D02*
X78109714Y-91328952D01*
X77871619Y-89995619D02*
X77871619Y-90471809D01*
X77871619Y-90471809D02*
X78347809Y-90519428D01*
X78347809Y-90519428D02*
X78300190Y-90471809D01*
X78300190Y-90471809D02*
X78252571Y-90376571D01*
X78252571Y-90376571D02*
X78252571Y-90138476D01*
X78252571Y-90138476D02*
X78300190Y-90043238D01*
X78300190Y-90043238D02*
X78347809Y-89995619D01*
X78347809Y-89995619D02*
X78443047Y-89948000D01*
X78443047Y-89948000D02*
X78681142Y-89948000D01*
X78681142Y-89948000D02*
X78776380Y-89995619D01*
X78776380Y-89995619D02*
X78824000Y-90043238D01*
X78824000Y-90043238D02*
X78871619Y-90138476D01*
X78871619Y-90138476D02*
X78871619Y-90376571D01*
X78871619Y-90376571D02*
X78824000Y-90471809D01*
X78824000Y-90471809D02*
X78776380Y-90519428D01*
%TO.C,J2*%
X84766666Y-85757574D02*
X84766666Y-86471859D01*
X84766666Y-86471859D02*
X84719047Y-86614716D01*
X84719047Y-86614716D02*
X84623809Y-86709955D01*
X84623809Y-86709955D02*
X84480952Y-86757574D01*
X84480952Y-86757574D02*
X84385714Y-86757574D01*
X85195238Y-85852812D02*
X85242857Y-85805193D01*
X85242857Y-85805193D02*
X85338095Y-85757574D01*
X85338095Y-85757574D02*
X85576190Y-85757574D01*
X85576190Y-85757574D02*
X85671428Y-85805193D01*
X85671428Y-85805193D02*
X85719047Y-85852812D01*
X85719047Y-85852812D02*
X85766666Y-85948050D01*
X85766666Y-85948050D02*
X85766666Y-86043288D01*
X85766666Y-86043288D02*
X85719047Y-86186145D01*
X85719047Y-86186145D02*
X85147619Y-86757574D01*
X85147619Y-86757574D02*
X85766666Y-86757574D01*
D13*
X79445000Y-87294955D02*
X80715000Y-87294955D01*
X79445000Y-88564955D02*
X79445000Y-87294955D01*
X81757929Y-90724955D02*
X82155000Y-90724955D01*
X81757929Y-91484955D02*
X82155000Y-91484955D01*
X81757929Y-93264955D02*
X82155000Y-93264955D01*
X81757929Y-94024955D02*
X82155000Y-94024955D01*
X81825000Y-88184955D02*
X82155000Y-88184955D01*
X81825000Y-88944955D02*
X82155000Y-88944955D01*
X82155000Y-87234955D02*
X82155000Y-94974955D01*
X82155000Y-89834955D02*
X84815000Y-89834955D01*
X82155000Y-92374955D02*
X84815000Y-92374955D01*
X82155000Y-94974955D02*
X84815000Y-94974955D01*
X84815000Y-87234955D02*
X82155000Y-87234955D01*
X84815000Y-88184955D02*
X90815000Y-88184955D01*
X84815000Y-88244955D02*
X90815000Y-88244955D01*
X84815000Y-88364955D02*
X90815000Y-88364955D01*
X84815000Y-88484955D02*
X90815000Y-88484955D01*
X84815000Y-88604955D02*
X90815000Y-88604955D01*
X84815000Y-88724955D02*
X90815000Y-88724955D01*
X84815000Y-88844955D02*
X90815000Y-88844955D01*
X84815000Y-90724955D02*
X90815000Y-90724955D01*
X84815000Y-93264955D02*
X90815000Y-93264955D01*
X84815000Y-94974955D02*
X84815000Y-87234955D01*
X90815000Y-88184955D02*
X90815000Y-88944955D01*
X90815000Y-88944955D02*
X84815000Y-88944955D01*
X90815000Y-90724955D02*
X90815000Y-91484955D01*
X90815000Y-91484955D02*
X84815000Y-91484955D01*
X90815000Y-93264955D02*
X90815000Y-94024955D01*
X90815000Y-94024955D02*
X84815000Y-94024955D01*
%TD*%
%LPC*%
D14*
%TO.C,J2*%
X80715000Y-88564955D03*
D15*
X80715000Y-91104955D03*
X80715000Y-93644955D03*
%TD*%
%LPD*%
M02*
