%TF.GenerationSoftware,KiCad,Pcbnew,7.0.2*%
%TF.CreationDate,2023-10-29T21:04:39-05:00*%
%TF.ProjectId,Kraken_CAN,4b72616b-656e-45f4-9341-4e2e6b696361,rev?*%
%TF.SameCoordinates,Original*%
%TF.FileFunction,Legend,Top*%
%TF.FilePolarity,Positive*%
%FSLAX46Y46*%
G04 Gerber Fmt 4.6, Leading zero omitted, Abs format (unit mm)*
G04 Created by KiCad (PCBNEW 7.0.2) date 2023-10-29 21:04:39*
%MOMM*%
%LPD*%
G01*
G04 APERTURE LIST*
G04 Aperture macros list*
%AMHorizOval*
0 Thick line with rounded ends*
0 $1 width*
0 $2 $3 position (X,Y) of the first rounded end (center of the circle)*
0 $4 $5 position (X,Y) of the second rounded end (center of the circle)*
0 Add line between two ends*
20,1,$1,$2,$3,$4,$5,0*
0 Add two circle primitives to create the rounded ends*
1,1,$1,$2,$3*
1,1,$1,$4,$5*%
%AMRotRect*
0 Rectangle, with rotation*
0 The origin of the aperture is its center*
0 $1 length*
0 $2 width*
0 $3 Rotation angle, in degrees counterclockwise*
0 Add horizontal line*
21,1,$1,$2,0,0,$3*%
G04 Aperture macros list end*
%ADD10C,0.100000*%
%ADD11C,0.300000*%
%ADD12C,0.150000*%
%ADD13C,4.700000*%
%ADD14RotRect,1.700000X1.700000X227.500000*%
%ADD15HorizOval,1.700000X0.000000X0.000000X0.000000X0.000000X0*%
%ADD16RotRect,1.700000X1.700000X312.500000*%
%ADD17HorizOval,1.700000X0.000000X0.000000X0.000000X0.000000X0*%
G04 APERTURE END LIST*
D10*
X147302134Y-93429556D02*
X157117367Y-84435714D01*
X121392101Y-84435393D02*
X131207172Y-93429411D01*
D11*
X150729120Y-89666410D02*
X150202494Y-90148974D01*
X150202494Y-90148974D02*
X149189108Y-89043058D01*
X124611959Y-86796103D02*
X124085332Y-86313539D01*
X124085332Y-86313539D02*
X125098717Y-85207623D01*
X149661428Y-81096428D02*
X148947142Y-81096428D01*
X148947142Y-81096428D02*
X148947142Y-79596428D01*
X154012494Y-86694574D02*
X152999108Y-85588658D01*
X153481673Y-86115285D02*
X154113625Y-85536208D01*
X154644446Y-86115497D02*
X153631060Y-85009581D01*
D10*
X146900895Y-85434780D02*
X147053276Y-85434780D01*
X146958038Y-85301447D02*
X146958038Y-85644304D01*
X146958038Y-85644304D02*
X146977085Y-85682400D01*
X146977085Y-85682400D02*
X147015180Y-85701447D01*
X147015180Y-85701447D02*
X147053276Y-85701447D01*
X147186609Y-85701447D02*
X147186609Y-85434780D01*
X147186609Y-85472876D02*
X147205656Y-85453828D01*
X147205656Y-85453828D02*
X147243751Y-85434780D01*
X147243751Y-85434780D02*
X147300894Y-85434780D01*
X147300894Y-85434780D02*
X147338990Y-85453828D01*
X147338990Y-85453828D02*
X147358037Y-85491923D01*
X147358037Y-85491923D02*
X147358037Y-85701447D01*
X147358037Y-85491923D02*
X147377085Y-85453828D01*
X147377085Y-85453828D02*
X147415180Y-85434780D01*
X147415180Y-85434780D02*
X147472323Y-85434780D01*
X147472323Y-85434780D02*
X147510418Y-85453828D01*
X147510418Y-85453828D02*
X147529466Y-85491923D01*
X147529466Y-85491923D02*
X147529466Y-85701447D01*
D11*
X127641332Y-89564739D02*
X128654717Y-88458823D01*
X128172153Y-88985449D02*
X128804105Y-89564527D01*
X128273284Y-90143816D02*
X129286669Y-89037900D01*
X132064229Y-86772257D02*
X132778515Y-86772257D01*
X131921372Y-87200828D02*
X132421372Y-85700828D01*
X132421372Y-85700828D02*
X132921372Y-87200828D01*
X134564228Y-87200828D02*
X134564228Y-85700828D01*
X135421371Y-87200828D02*
X134778514Y-86343685D01*
X135421371Y-85700828D02*
X134564228Y-86557971D01*
X136064228Y-86415114D02*
X136564228Y-86415114D01*
X136778514Y-87200828D02*
X136064228Y-87200828D01*
X136064228Y-87200828D02*
X136064228Y-85700828D01*
X136064228Y-85700828D02*
X136778514Y-85700828D01*
X137421371Y-87200828D02*
X137421371Y-85700828D01*
X137421371Y-85700828D02*
X138278514Y-87200828D01*
X138278514Y-87200828D02*
X138278514Y-85700828D01*
X140564229Y-85700828D02*
X140564229Y-86772257D01*
X140564229Y-86772257D02*
X140492800Y-86986542D01*
X140492800Y-86986542D02*
X140349943Y-87129400D01*
X140349943Y-87129400D02*
X140135657Y-87200828D01*
X140135657Y-87200828D02*
X139992800Y-87200828D01*
X141207086Y-86772257D02*
X141921372Y-86772257D01*
X141064229Y-87200828D02*
X141564229Y-85700828D01*
X141564229Y-85700828D02*
X142064229Y-87200828D01*
X142564228Y-87200828D02*
X142564228Y-85700828D01*
X142564228Y-85700828D02*
X143064228Y-86772257D01*
X143064228Y-86772257D02*
X143564228Y-85700828D01*
X143564228Y-85700828D02*
X143564228Y-87200828D01*
X144278514Y-86415114D02*
X144778514Y-86415114D01*
X144992800Y-87200828D02*
X144278514Y-87200828D01*
X144278514Y-87200828D02*
X144278514Y-85700828D01*
X144278514Y-85700828D02*
X144992800Y-85700828D01*
X145564229Y-87129400D02*
X145778515Y-87200828D01*
X145778515Y-87200828D02*
X146135657Y-87200828D01*
X146135657Y-87200828D02*
X146278515Y-87129400D01*
X146278515Y-87129400D02*
X146349943Y-87057971D01*
X146349943Y-87057971D02*
X146421372Y-86915114D01*
X146421372Y-86915114D02*
X146421372Y-86772257D01*
X146421372Y-86772257D02*
X146349943Y-86629400D01*
X146349943Y-86629400D02*
X146278515Y-86557971D01*
X146278515Y-86557971D02*
X146135657Y-86486542D01*
X146135657Y-86486542D02*
X145849943Y-86415114D01*
X145849943Y-86415114D02*
X145707086Y-86343685D01*
X145707086Y-86343685D02*
X145635657Y-86272257D01*
X145635657Y-86272257D02*
X145564229Y-86129400D01*
X145564229Y-86129400D02*
X145564229Y-85986542D01*
X145564229Y-85986542D02*
X145635657Y-85843685D01*
X145635657Y-85843685D02*
X145707086Y-85772257D01*
X145707086Y-85772257D02*
X145849943Y-85700828D01*
X145849943Y-85700828D02*
X146207086Y-85700828D01*
X146207086Y-85700828D02*
X146421372Y-85772257D01*
X135278514Y-89630828D02*
X135278514Y-88130828D01*
X135278514Y-88130828D02*
X135849943Y-88130828D01*
X135849943Y-88130828D02*
X135992800Y-88202257D01*
X135992800Y-88202257D02*
X136064229Y-88273685D01*
X136064229Y-88273685D02*
X136135657Y-88416542D01*
X136135657Y-88416542D02*
X136135657Y-88630828D01*
X136135657Y-88630828D02*
X136064229Y-88773685D01*
X136064229Y-88773685D02*
X135992800Y-88845114D01*
X135992800Y-88845114D02*
X135849943Y-88916542D01*
X135849943Y-88916542D02*
X135278514Y-88916542D01*
X136778514Y-89630828D02*
X136778514Y-88630828D01*
X136778514Y-88916542D02*
X136849943Y-88773685D01*
X136849943Y-88773685D02*
X136921372Y-88702257D01*
X136921372Y-88702257D02*
X137064229Y-88630828D01*
X137064229Y-88630828D02*
X137207086Y-88630828D01*
X137921371Y-89630828D02*
X137778514Y-89559400D01*
X137778514Y-89559400D02*
X137707085Y-89487971D01*
X137707085Y-89487971D02*
X137635657Y-89345114D01*
X137635657Y-89345114D02*
X137635657Y-88916542D01*
X137635657Y-88916542D02*
X137707085Y-88773685D01*
X137707085Y-88773685D02*
X137778514Y-88702257D01*
X137778514Y-88702257D02*
X137921371Y-88630828D01*
X137921371Y-88630828D02*
X138135657Y-88630828D01*
X138135657Y-88630828D02*
X138278514Y-88702257D01*
X138278514Y-88702257D02*
X138349943Y-88773685D01*
X138349943Y-88773685D02*
X138421371Y-88916542D01*
X138421371Y-88916542D02*
X138421371Y-89345114D01*
X138421371Y-89345114D02*
X138349943Y-89487971D01*
X138349943Y-89487971D02*
X138278514Y-89559400D01*
X138278514Y-89559400D02*
X138135657Y-89630828D01*
X138135657Y-89630828D02*
X137921371Y-89630828D01*
X139707086Y-89630828D02*
X139707086Y-88130828D01*
X139707086Y-89559400D02*
X139564228Y-89630828D01*
X139564228Y-89630828D02*
X139278514Y-89630828D01*
X139278514Y-89630828D02*
X139135657Y-89559400D01*
X139135657Y-89559400D02*
X139064228Y-89487971D01*
X139064228Y-89487971D02*
X138992800Y-89345114D01*
X138992800Y-89345114D02*
X138992800Y-88916542D01*
X138992800Y-88916542D02*
X139064228Y-88773685D01*
X139064228Y-88773685D02*
X139135657Y-88702257D01*
X139135657Y-88702257D02*
X139278514Y-88630828D01*
X139278514Y-88630828D02*
X139564228Y-88630828D01*
X139564228Y-88630828D02*
X139707086Y-88702257D01*
X141064229Y-88630828D02*
X141064229Y-89630828D01*
X140421371Y-88630828D02*
X140421371Y-89416542D01*
X140421371Y-89416542D02*
X140492800Y-89559400D01*
X140492800Y-89559400D02*
X140635657Y-89630828D01*
X140635657Y-89630828D02*
X140849943Y-89630828D01*
X140849943Y-89630828D02*
X140992800Y-89559400D01*
X140992800Y-89559400D02*
X141064229Y-89487971D01*
X142421372Y-89559400D02*
X142278514Y-89630828D01*
X142278514Y-89630828D02*
X141992800Y-89630828D01*
X141992800Y-89630828D02*
X141849943Y-89559400D01*
X141849943Y-89559400D02*
X141778514Y-89487971D01*
X141778514Y-89487971D02*
X141707086Y-89345114D01*
X141707086Y-89345114D02*
X141707086Y-88916542D01*
X141707086Y-88916542D02*
X141778514Y-88773685D01*
X141778514Y-88773685D02*
X141849943Y-88702257D01*
X141849943Y-88702257D02*
X141992800Y-88630828D01*
X141992800Y-88630828D02*
X142278514Y-88630828D01*
X142278514Y-88630828D02*
X142421372Y-88702257D01*
X142849943Y-88630828D02*
X143421371Y-88630828D01*
X143064228Y-88130828D02*
X143064228Y-89416542D01*
X143064228Y-89416542D02*
X143135657Y-89559400D01*
X143135657Y-89559400D02*
X143278514Y-89630828D01*
X143278514Y-89630828D02*
X143421371Y-89630828D01*
X128627142Y-80461428D02*
X128627142Y-78961428D01*
X128627142Y-79675714D02*
X129484285Y-79675714D01*
X129484285Y-80461428D02*
X129484285Y-78961428D01*
D12*
%TO.C,J3*%
X141652666Y-77440619D02*
X141652666Y-78154904D01*
X141652666Y-78154904D02*
X141605047Y-78297761D01*
X141605047Y-78297761D02*
X141509809Y-78393000D01*
X141509809Y-78393000D02*
X141366952Y-78440619D01*
X141366952Y-78440619D02*
X141271714Y-78440619D01*
X142033619Y-77440619D02*
X142652666Y-77440619D01*
X142652666Y-77440619D02*
X142319333Y-77821571D01*
X142319333Y-77821571D02*
X142462190Y-77821571D01*
X142462190Y-77821571D02*
X142557428Y-77869190D01*
X142557428Y-77869190D02*
X142605047Y-77916809D01*
X142605047Y-77916809D02*
X142652666Y-78012047D01*
X142652666Y-78012047D02*
X142652666Y-78250142D01*
X142652666Y-78250142D02*
X142605047Y-78345380D01*
X142605047Y-78345380D02*
X142557428Y-78393000D01*
X142557428Y-78393000D02*
X142462190Y-78440619D01*
X142462190Y-78440619D02*
X142176476Y-78440619D01*
X142176476Y-78440619D02*
X142081238Y-78393000D01*
X142081238Y-78393000D02*
X142033619Y-78345380D01*
%TO.C,J4*%
X136064666Y-77440619D02*
X136064666Y-78154904D01*
X136064666Y-78154904D02*
X136017047Y-78297761D01*
X136017047Y-78297761D02*
X135921809Y-78393000D01*
X135921809Y-78393000D02*
X135778952Y-78440619D01*
X135778952Y-78440619D02*
X135683714Y-78440619D01*
X136969428Y-77773952D02*
X136969428Y-78440619D01*
X136731333Y-77393000D02*
X136493238Y-78107285D01*
X136493238Y-78107285D02*
X137112285Y-78107285D01*
%TD*%
%LPC*%
D13*
%TO.C,J3*%
X145754792Y-78031589D03*
%TD*%
%TO.C,J4*%
X132754792Y-78031471D03*
%TD*%
D14*
%TO.C,J1*%
X122333685Y-88743347D03*
D15*
X124206369Y-90459346D03*
X126079054Y-92175345D03*
%TD*%
D16*
%TO.C,J2*%
X152430466Y-92175501D03*
D17*
X154303150Y-90459502D03*
X156175835Y-88743503D03*
%TD*%
%LPD*%
M02*
